<svg id="Capa_1" data-name="Capa 1" xmlns="http://www.w3.org/2000/svg" viewBox="0 0 19.5 21.5"><defs><style>.cls-1{fill:none;stroke:#ef3535;stroke-linecap:round;stroke-linejoin:round;stroke-width:1.5px;}</style></defs><path class="cls-1" d="M18.75,8.4A6.61,6.61,0,0,0,17,3.87a5.74,5.74,0,0,0-8.48,0A6.61,6.61,0,0,0,6.75,8.4c0,7.47-3,9.6-3,9.6h18S18.75,15.87,18.75,8.4Z" transform="translate(-3 -1.25)"/><path class="cls-1" d="M14.48,21a2.13,2.13,0,0,1-.73.73,2,2,0,0,1-2,0A2.13,2.13,0,0,1,11,21" transform="translate(-3 -1.25)"/></svg>