<svg width="25" height="24" viewBox="0 0 25 24" fill="none" xmlns="http://www.w3.org/2000/svg">
<path d="M16.75 6.27975C16.75 6.88118 16.5125 7.45883 16.0883 7.88611C15.1119 8.87007 14.165 9.89605 13.1521 10.8443C12.92 11.0585 12.5517 11.0507 12.3295 10.8268L9.4115 7.88611C8.5295 6.99725 8.5295 5.56225 9.4115 4.67339C10.3022 3.77579 11.7532 3.77579 12.6438 4.67339L12.7499 4.78027L12.8559 4.67345C13.283 4.24286 13.8646 4 14.4721 4C15.0797 4 15.6613 4.24284 16.0883 4.67339C16.5125 5.10073 16.75 5.67835 16.75 6.27975Z" stroke="white" stroke-width="1.5" stroke-linejoin="round"/>
<path d="M18.75 20L22.5743 16.1757C22.6868 16.0632 22.75 15.9106 22.75 15.7515V10.5C22.75 9.67157 22.0784 9 21.25 9C20.4216 9 19.75 9.67157 19.75 10.5V15" stroke="white" stroke-width="1.5" stroke-linecap="round" stroke-linejoin="round"/>
<path d="M18.75 16L19.6081 15.1419C19.699 15.051 19.75 14.9278 19.75 14.7994C19.75 14.6159 19.6463 14.4482 19.4822 14.3661L19.0393 14.1447C18.2694 13.7597 17.3394 13.9106 16.7307 14.5193L15.8358 15.4142C15.4607 15.7893 15.25 16.298 15.25 16.8284V20" stroke="white" stroke-width="1.5" stroke-linecap="round" stroke-linejoin="round"/>
<path d="M6.75 20L2.92574 16.1757C2.81321 16.0632 2.75 15.9106 2.75 15.7515V10.5C2.75 9.67157 3.42157 9 4.25 9C5.07843 9 5.75 9.67157 5.75 10.5V15" stroke="white" stroke-width="1.5" stroke-linecap="round" stroke-linejoin="round"/>
<path d="M6.75 16L5.89187 15.1419C5.80103 15.051 5.75 14.9278 5.75 14.7994C5.75 14.6159 5.85366 14.4482 6.01776 14.3661L6.46067 14.1447C7.23064 13.7597 8.16059 13.9106 8.76931 14.5193L9.66421 15.4142C10.0393 15.7893 10.25 16.298 10.25 16.8284V20" stroke="white" stroke-width="1.5" stroke-linecap="round" stroke-linejoin="round"/>
</svg>
