<svg width="24" height="24" viewBox="0 0 24 24" fill="none" xmlns="http://www.w3.org/2000/svg">
<path fill-rule="evenodd" clip-rule="evenodd" d="M16 5C18.2091 5 20 6.79086 20 9C20 11.2091 18.2091 13 16 13C15.5176 13 15.0574 12.9147 14.6318 12.7598C13.9327 12.5053 13.018 12.5681 12.3721 13.2139L11.0859 14.5H10C9.17157 14.5 8.5 15.1716 8.5 16V16.5H7.5C6.67157 16.5 6 17.1716 6 18V19H4V16.4541L11.3174 10.0518L11.4727 9.89941C11.8117 9.52995 11.9777 9.06813 12.0166 8.63574L12.0381 8.44629C12.3072 6.49967 13.9789 5 16 5ZM16 15C19.3137 15 22 12.3137 22 9C22 5.68629 19.3137 3 16 3C12.9671 3 10.4605 5.2496 10.0566 8.17188L10.0244 8.45703C10.0211 8.49396 10.0119 8.52008 10.0049 8.53516L10 8.5459L2.68262 14.9482C2.2486 15.328 2 15.8774 2 16.4541V19C2 20.1046 2.89543 21 4 21H6C7.10457 21 8 20.1046 8 19V18.5H9C9.82843 18.5 10.5 17.8284 10.5 17V16.5H11.0859C11.6163 16.5 12.125 16.2891 12.5 15.9141L13.785 14.6291C13.7879 14.6275 13.7952 14.6245 13.8096 14.6221C13.8409 14.6169 13.8908 14.6191 13.9473 14.6396C14.5889 14.8732 15.2808 15 16 15ZM13.7848 14.6292C13.784 14.6296 13.7837 14.6299 13.7835 14.63L13.7848 14.6292ZM17 9C17.5523 9 18 8.55228 18 8C18 7.44772 17.5523 7 17 7C16.4477 7 16 7.44772 16 8C16 8.55228 16.4477 9 17 9Z" fill="#34603F"/>
</svg>
