<svg width="286" height="132" viewBox="0 0 286 132" fill="none" xmlns="http://www.w3.org/2000/svg">
<g filter="url(#filter0_dd_157_1334)">
<rect x="2" y="1" width="282" height="128" rx="12" fill="#C5CCD6" shape-rendering="crispEdges"/>
<path d="M106.135 99.16V107.5H104.767V99.16H106.135ZM111.267 100.78C111.787 100.78 112.251 100.888 112.659 101.104C113.075 101.32 113.399 101.64 113.631 102.064C113.863 102.488 113.979 103 113.979 103.6V107.5H112.623V103.804C112.623 103.212 112.475 102.76 112.179 102.448C111.883 102.128 111.479 101.968 110.967 101.968C110.455 101.968 110.047 102.128 109.743 102.448C109.447 102.76 109.299 103.212 109.299 103.804V107.5H107.931V100.888H109.299V101.644C109.523 101.372 109.807 101.16 110.151 101.008C110.503 100.856 110.875 100.78 111.267 100.78ZM118.124 107.608C117.604 107.608 117.136 107.516 116.72 107.332C116.312 107.14 115.988 106.884 115.748 106.564C115.508 106.236 115.38 105.872 115.364 105.472H116.78C116.804 105.752 116.936 105.988 117.176 106.18C117.424 106.364 117.732 106.456 118.1 106.456C118.484 106.456 118.78 106.384 118.988 106.24C119.204 106.088 119.312 105.896 119.312 105.664C119.312 105.416 119.192 105.232 118.952 105.112C118.72 104.992 118.348 104.86 117.836 104.716C117.34 104.58 116.936 104.448 116.624 104.32C116.312 104.192 116.04 103.996 115.808 103.732C115.584 103.468 115.472 103.12 115.472 102.688C115.472 102.336 115.576 102.016 115.784 101.728C115.992 101.432 116.288 101.2 116.672 101.032C117.064 100.864 117.512 100.78 118.016 100.78C118.768 100.78 119.372 100.972 119.828 101.356C120.292 101.732 120.54 102.248 120.572 102.904H119.204C119.18 102.608 119.06 102.372 118.844 102.196C118.628 102.02 118.336 101.932 117.968 101.932C117.608 101.932 117.332 102 117.14 102.136C116.948 102.272 116.852 102.452 116.852 102.676C116.852 102.852 116.916 103 117.044 103.12C117.172 103.24 117.328 103.336 117.512 103.408C117.696 103.472 117.968 103.556 118.328 103.66C118.808 103.788 119.2 103.92 119.504 104.056C119.816 104.184 120.084 104.376 120.308 104.632C120.532 104.888 120.648 105.228 120.656 105.652C120.656 106.028 120.552 106.364 120.344 106.66C120.136 106.956 119.84 107.188 119.456 107.356C119.08 107.524 118.636 107.608 118.124 107.608ZM128.194 104.032C128.194 104.28 128.178 104.504 128.146 104.704H123.094C123.134 105.232 123.33 105.656 123.682 105.976C124.034 106.296 124.466 106.456 124.978 106.456C125.714 106.456 126.234 106.148 126.538 105.532H128.014C127.814 106.14 127.45 106.64 126.922 107.032C126.402 107.416 125.754 107.608 124.978 107.608C124.346 107.608 123.778 107.468 123.274 107.188C122.778 106.9 122.386 106.5 122.098 105.988C121.818 105.468 121.678 104.868 121.678 104.188C121.678 103.508 121.814 102.912 122.086 102.4C122.366 101.88 122.754 101.48 123.25 101.2C123.754 100.92 124.33 100.78 124.978 100.78C125.602 100.78 126.158 100.916 126.646 101.188C127.134 101.46 127.514 101.844 127.786 102.34C128.058 102.828 128.194 103.392 128.194 104.032ZM126.766 103.6C126.758 103.096 126.578 102.692 126.226 102.388C125.874 102.084 125.438 101.932 124.918 101.932C124.446 101.932 124.042 102.084 123.706 102.388C123.37 102.684 123.17 103.088 123.106 103.6H126.766ZM130.909 101.848C131.109 101.512 131.373 101.252 131.701 101.068C132.037 100.876 132.433 100.78 132.889 100.78V102.196H132.541C132.005 102.196 131.597 102.332 131.317 102.604C131.045 102.876 130.909 103.348 130.909 104.02V107.5H129.541V100.888H130.909V101.848ZM135.742 102.004V105.664C135.742 105.912 135.798 106.092 135.91 106.204C136.03 106.308 136.23 106.36 136.51 106.36H137.35V107.5H136.27C135.654 107.5 135.182 107.356 134.854 107.068C134.526 106.78 134.362 106.312 134.362 105.664V102.004H133.582V100.888H134.362V99.244H135.742V100.888H137.35V102.004H135.742ZM142.424 100.012C142.176 100.012 141.968 99.928 141.8 99.76C141.632 99.592 141.548 99.384 141.548 99.136C141.548 98.888 141.632 98.68 141.8 98.512C141.968 98.344 142.176 98.26 142.424 98.26C142.664 98.26 142.868 98.344 143.036 98.512C143.204 98.68 143.288 98.888 143.288 99.136C143.288 99.384 143.204 99.592 143.036 99.76C142.868 99.928 142.664 100.012 142.424 100.012ZM143.096 100.888V107.5H141.728V100.888H143.096ZM152.896 100.78C153.416 100.78 153.88 100.888 154.288 101.104C154.704 101.32 155.028 101.64 155.26 102.064C155.5 102.488 155.62 103 155.62 103.6V107.5H154.264V103.804C154.264 103.212 154.116 102.76 153.82 102.448C153.524 102.128 153.12 101.968 152.608 101.968C152.096 101.968 151.688 102.128 151.384 102.448C151.088 102.76 150.94 103.212 150.94 103.804V107.5H149.584V103.804C149.584 103.212 149.436 102.76 149.14 102.448C148.844 102.128 148.44 101.968 147.928 101.968C147.416 101.968 147.008 102.128 146.704 102.448C146.408 102.76 146.26 103.212 146.26 103.804V107.5H144.892V100.888H146.26V101.644C146.484 101.372 146.768 101.16 147.112 101.008C147.456 100.856 147.824 100.78 148.216 100.78C148.744 100.78 149.216 100.892 149.632 101.116C150.048 101.34 150.368 101.664 150.592 102.088C150.792 101.688 151.104 101.372 151.528 101.14C151.952 100.9 152.408 100.78 152.896 100.78ZM156.905 104.164C156.905 103.5 157.041 102.912 157.313 102.4C157.593 101.888 157.969 101.492 158.441 101.212C158.921 100.924 159.449 100.78 160.025 100.78C160.545 100.78 160.997 100.884 161.381 101.092C161.773 101.292 162.085 101.544 162.317 101.848V100.888H163.697V107.5H162.317V106.516C162.085 106.828 161.769 107.088 161.369 107.296C160.969 107.504 160.513 107.608 160.001 107.608C159.433 107.608 158.913 107.464 158.441 107.176C157.969 106.88 157.593 106.472 157.313 105.952C157.041 105.424 156.905 104.828 156.905 104.164ZM162.317 104.188C162.317 103.732 162.221 103.336 162.029 103C161.845 102.664 161.601 102.408 161.297 102.232C160.993 102.056 160.665 101.968 160.313 101.968C159.961 101.968 159.633 102.056 159.329 102.232C159.025 102.4 158.777 102.652 158.585 102.988C158.401 103.316 158.309 103.708 158.309 104.164C158.309 104.62 158.401 105.02 158.585 105.364C158.777 105.708 159.025 105.972 159.329 106.156C159.641 106.332 159.969 106.42 160.313 106.42C160.665 106.42 160.993 106.332 161.297 106.156C161.601 105.98 161.845 105.724 162.029 105.388C162.221 105.044 162.317 104.644 162.317 104.188ZM168.158 100.78C168.67 100.78 169.122 100.884 169.514 101.092C169.914 101.292 170.226 101.544 170.45 101.848V100.888H171.83V107.608C171.83 108.216 171.702 108.756 171.446 109.228C171.19 109.708 170.818 110.084 170.33 110.356C169.85 110.628 169.274 110.764 168.602 110.764C167.706 110.764 166.962 110.552 166.37 110.128C165.778 109.712 165.442 109.144 165.362 108.424H166.718C166.822 108.768 167.042 109.044 167.378 109.252C167.722 109.468 168.13 109.576 168.602 109.576C169.154 109.576 169.598 109.408 169.934 109.072C170.278 108.736 170.45 108.248 170.45 107.608V106.504C170.218 106.816 169.902 107.08 169.502 107.296C169.11 107.504 168.662 107.608 168.158 107.608C167.582 107.608 167.054 107.464 166.574 107.176C166.102 106.88 165.726 106.472 165.446 105.952C165.174 105.424 165.038 104.828 165.038 104.164C165.038 103.5 165.174 102.912 165.446 102.4C165.726 101.888 166.102 101.492 166.574 101.212C167.054 100.924 167.582 100.78 168.158 100.78ZM170.45 104.188C170.45 103.732 170.354 103.336 170.162 103C169.978 102.664 169.734 102.408 169.43 102.232C169.126 102.056 168.798 101.968 168.446 101.968C168.094 101.968 167.766 102.056 167.462 102.232C167.158 102.4 166.91 102.652 166.718 102.988C166.534 103.316 166.442 103.708 166.442 104.164C166.442 104.62 166.534 105.02 166.718 105.364C166.91 105.708 167.158 105.972 167.462 106.156C167.774 106.332 168.102 106.42 168.446 106.42C168.798 106.42 169.126 106.332 169.43 106.156C169.734 105.98 169.978 105.724 170.162 105.388C170.354 105.044 170.45 104.644 170.45 104.188ZM179.687 104.032C179.687 104.28 179.671 104.504 179.639 104.704H174.587C174.627 105.232 174.823 105.656 175.175 105.976C175.527 106.296 175.959 106.456 176.471 106.456C177.207 106.456 177.727 106.148 178.031 105.532H179.507C179.307 106.14 178.943 106.64 178.415 107.032C177.895 107.416 177.247 107.608 176.471 107.608C175.839 107.608 175.271 107.468 174.767 107.188C174.271 106.9 173.879 106.5 173.591 105.988C173.311 105.468 173.171 104.868 173.171 104.188C173.171 103.508 173.307 102.912 173.579 102.4C173.859 101.88 174.247 101.48 174.743 101.2C175.247 100.92 175.823 100.78 176.471 100.78C177.095 100.78 177.651 100.916 178.139 101.188C178.627 101.46 179.007 101.844 179.279 102.34C179.551 102.828 179.687 103.392 179.687 104.032ZM178.259 103.6C178.251 103.096 178.071 102.692 177.719 102.388C177.367 102.084 176.931 101.932 176.411 101.932C175.939 101.932 175.535 102.084 175.199 102.388C174.863 102.684 174.663 103.088 174.599 103.6H178.259Z" fill="black"/>
</g>
<defs>
<filter id="filter0_dd_157_1334" x="0" y="0" width="286" height="132" filterUnits="userSpaceOnUse" color-interpolation-filters="sRGB">
<feFlood flood-opacity="0" result="BackgroundImageFix"/>
<feColorMatrix in="SourceAlpha" type="matrix" values="0 0 0 0 0 0 0 0 0 0 0 0 0 0 0 0 0 0 127 0" result="hardAlpha"/>
<feMorphology radius="1" operator="dilate" in="SourceAlpha" result="effect1_dropShadow_157_1334"/>
<feOffset/>
<feComposite in2="hardAlpha" operator="out"/>
<feColorMatrix type="matrix" values="0 0 0 0 0.0368 0 0 0 0 0.0984 0 0 0 0 0.2832 0 0 0 0.13 0"/>
<feBlend mode="normal" in2="BackgroundImageFix" result="effect1_dropShadow_157_1334"/>
<feColorMatrix in="SourceAlpha" type="matrix" values="0 0 0 0 0 0 0 0 0 0 0 0 0 0 0 0 0 0 127 0" result="hardAlpha"/>
<feOffset dy="1"/>
<feGaussianBlur stdDeviation="1"/>
<feComposite in2="hardAlpha" operator="out"/>
<feColorMatrix type="matrix" values="0 0 0 0 0.0696 0 0 0 0 0.215657 0 0 0 0 0.4104 0 0 0 0.08 0"/>
<feBlend mode="normal" in2="effect1_dropShadow_157_1334" result="effect2_dropShadow_157_1334"/>
<feBlend mode="normal" in="SourceGraphic" in2="effect2_dropShadow_157_1334" result="shape"/>
</filter>
</defs>
</svg>
