<svg xmlns="http://www.w3.org/2000/svg" viewBox="0 0 154.77 171.82"><defs><style>.cls-1,.cls-6{fill:#c99c7d;}.cls-1{stroke:#000;}.cls-1,.cls-9{stroke-miterlimit:10;}.cls-2,.cls-9{fill:#ead3b9;}.cls-3{fill:#8e6b4c;}.cls-4{fill:#4c3729;}.cls-5{fill:#e2d5c7;}.cls-7{fill:#fff;}.cls-8{fill:#725344;}.cls-9{stroke:#020202;}.cls-10{fill:#996b5b;}</style></defs><g id="Capa_2" data-name="Capa 2"><g id="DIBUJO"><path class="cls-1" d="M137.15,61.94A50.85,50.85,0,0,1,130,86.76c-12,20.14-36.33,28.61-55.78,28.67-23.07.06-50.67-11.66-59-33-3.33-8.52-3.1-17.35-3-20A53.63,53.63,0,0,1,22.45,32.21c11-14.86,26.47-19,30.88-20l.92.45a14.4,14.4,0,0,1-2.77-3.6c-1-1.89-1.69-3.08-1.23-4,1-2,6.36-1.57,8-1.43a26.56,26.56,0,0,1,5.88,1.22,80,80,0,0,1,7.59,3.12A13.9,13.9,0,0,1,67.51,5c-1-1-2.23-2.33-1.9-3.23.67-1.83,8-1.9,13.72,1a19.59,19.59,0,0,1,7.56,7.06l-.09-.29a53.49,53.49,0,0,1,32.31,12.59C121,23.78,137.58,38.56,137.15,61.94Z"/><path class="cls-2" d="M43,99.87A43.5,43.5,0,0,1,27.26,81.41c-1.43-3.35-7-16.44-.76-29.12a29.86,29.86,0,0,1,8.94-10.53c9-6.62,18.88-6,22.67-5.74a38.26,38.26,0,0,1,16.83,5.41c2.83-1.6,15.85-8.52,30.5-3.78,3.07,1,11.4,3.68,16.56,11.89,4,6.39,4,12.79,4,16.33a41.14,41.14,0,0,1-6.45,21.22c-12.48,19-38.81,19.8-45.45,20C66.43,107.32,54.56,107.51,43,99.87Z"/><path class="cls-3" d="M24.22,58.87a36.41,36.41,0,0,0,3.85,23.89,79,79,0,0,0,20.07-4c3.92-1.34,6-2.44,8-4.3.61-.58,6.72-6.56,5-13.26-1.27-4.83-5.89-7.24-7.34-8C41.61,46.85,25.65,57.86,24.22,58.87Z"/><path class="cls-3" d="M125.41,58.29a40.77,40.77,0,0,1-3.27,24.15,85.18,85.18,0,0,1-20.41-4.22C98,77,95.8,75.9,93.73,73.93c-.61-.58-6.71-6.56-5-13.26,1.26-4.84,5.9-7.25,7.33-8C108.2,46.36,124,57.3,125.41,58.29Z"/><path class="cls-4" d="M82.49,77.93c-.1-1.63-4.33-2.78-7.55-2.77s-7.46,1.18-7.56,2.77S70.6,81,75.14,82.12C79.47,81,82.59,79.37,82.49,77.93Z"/><ellipse class="cls-4" cx="47.48" cy="64.9" rx="6.53" ry="8.81"/><ellipse class="cls-5" cx="39.21" cy="21.72" rx="6.22" ry="2.11" transform="translate(-5.62 21.71) rotate(-28.98)"/><ellipse class="cls-4" cx="102.67" cy="64.89" rx="6.97" ry="9.2"/><path class="cls-4" d="M89.19,84a6.1,6.1,0,0,1-2.53,3.92c-2.85,1.81-7.83.59-11.46-3.75-2.29,4-6.55,5.66-9.77,4.44a7.5,7.5,0,0,1-4-4.34,8.17,8.17,0,0,0,5,2.43,8.78,8.78,0,0,0,8.17-4.89h1.07a8.77,8.77,0,0,0,7.67,4.7A8.63,8.63,0,0,0,89.19,84Z"/><path class="cls-6" d="M89.19,84a8.63,8.63,0,0,1-5.84,2.51,8.77,8.77,0,0,1-7.67-4.7H74.61a8.78,8.78,0,0,1-8.17,4.89,8.17,8.17,0,0,1-5-2.43,9.64,9.64,0,0,0,5.09,1.6c4.74.08,7.71-3.57,8.1-4.06h1.07a10.92,10.92,0,0,0,7.74,3.8A10.44,10.44,0,0,0,89.19,84Z"/><path class="cls-4" d="M89.19,84a6,6,0,0,1-2.53,3.33c-2.92,1.74-7.79.44-11.46-3.75-2.37,3.85-6.52,5.56-9.77,4.44a7.47,7.47,0,0,1-4-3.75,8.17,8.17,0,0,0,5,2.43,8.78,8.78,0,0,0,8.17-4.89h1.07a8.77,8.77,0,0,0,7.67,4.7A8.63,8.63,0,0,0,89.19,84Z"/><ellipse class="cls-7" cx="72.29" cy="76.88" rx="1.6" ry="0.9" transform="translate(-7.78 8.14) rotate(-6.12)"/><ellipse class="cls-7" cx="99.66" cy="58.9" rx="1.6" ry="0.9" transform="translate(-15.9 65.79) rotate(-34)"/><ellipse class="cls-7" cx="49.93" cy="59.38" rx="0.9" ry="1.6" transform="translate(-27.22 67.57) rotate(-56)"/><ellipse class="cls-8" cx="105.97" cy="69.44" rx="1.6" ry="0.9" transform="translate(-20.71 71.12) rotate(-34)"/><ellipse class="cls-8" cx="45.04" cy="70.39" rx="0.9" ry="1.6" transform="translate(-38.5 68.37) rotate(-56)"/><path class="cls-1" d="M32.61,125.26a24.39,24.39,0,0,1,9,11.5c.77,2.06,3,8.15.43,14.94a16.94,16.94,0,0,1-6.5,8.47c-7.46,4.79-16.24,1-17,.59a46.82,46.82,0,0,1-14.22-18.3A46.14,46.14,0,0,1,.51,123.13,47.88,47.88,0,0,1,5,104.54,57.46,57.46,0,0,1,15.77,88l1.28-1.6a46.24,46.24,0,0,0,5.14,7.48A53.35,53.35,0,0,0,37.38,106a70,70,0,0,0,8.73,4.21l-4.78,4.48a14.34,14.34,0,0,0-4.67,7.93,13.7,13.7,0,0,0,.08,5.56,10.62,10.62,0,0,1-3-1.79A10.14,10.14,0,0,1,32.61,125.26Z"/><path class="cls-1" d="M151.66,145.87c-1.79,5.21-4.56,6.95-5.44,7.44a9.6,9.6,0,0,1-2.31.92c-3.55.91-7.15-.2-9-.81-10.77-3.49-16.81-13.79-22.77-24.27a119.35,119.35,0,0,1-8.82-19.39c-.05-.12-.09-.24-.13-.36,1.23-.5,2.63-1.11,4.15-1.88A55.68,55.68,0,0,0,119,99.7a56.45,56.45,0,0,0,9.16-10.17c1.12-1.61,2-3.09,2.77-4.38a170.75,170.75,0,0,1,14.31,25.94C154.55,132.19,153.3,141.1,151.66,145.87Z"/><path class="cls-9" d="M20.82,161.61a43.49,43.49,0,0,0,8.62,7.2c1.95,1.24,5,3.15,5.89,2.3s-.95-4.76-1.11-5.07c-1.08-2.07-2.45-3.38-2.34-3.48s1.16,1.12,2.84,2.2,4.5,2.43,5.32,1.58c.63-.65-.11-2.46-1.1-4.91-.77-1.91-1.41-2.88-1.13-3.13s1.37.76,3.41,1.68c.79.36,3.68,1.67,4.44,1,.6-.57.12-2.63-3.84-8.63A16.57,16.57,0,0,1,33,161.46,16.55,16.55,0,0,1,20.82,161.61Z"/><path class="cls-9" d="M132.67,152.59a35.44,35.44,0,0,0,4.25,6.35c1.31,1.56,3.09,3.68,4,3.26s.75-2.71.7-3.85c-.09-2-.6-3.24-.32-3.36s.84.86,1.51,1.76c1.33,1.79,4.18,5,5.33,4.45s.61-4,.44-5.29c-.28-2.25-.89-3.77-.55-3.93s.86,1,2.3,2.11c.35.29,2.47,2,3.33,1.59s1-3-1.4-12.08c-.06.38-1.27,7.76-6.71,10a13.54,13.54,0,0,1-6.62.79,24.37,24.37,0,0,1-3.09-.69A26.5,26.5,0,0,1,132.67,152.59Z"/><path class="cls-5" d="M51.13,7.3a2.29,2.29,0,0,1-.06-1.84c.48-.88,1.75-1,3.6-1.15a21.55,21.55,0,0,1,4.46.17,31.93,31.93,0,0,1,3.5.68,45.89,45.89,0,0,1,4.87,1.7l4.19,1.58c-1.32-.62-3.21-1.48-5.2-2.26-.77-.31-1.46-.56-2.27-.83-.52-.16-1.3-.41-2.36-.67a22.12,22.12,0,0,0-2.7-.49c-.28,0-.5-.06-.92-.09-1-.09-1.76-.16-2.75-.16-.16,0-.61,0-1.19,0a11.13,11.13,0,0,0-1.84.23,3.9,3.9,0,0,0-1,.37,1.54,1.54,0,0,0-.82.86,1.31,1.31,0,0,0,0,.6A4.86,4.86,0,0,0,51.13,7.3Z"/><path class="cls-5" d="M66.66,3.32a1.39,1.39,0,0,1-.06-1.08c.44-1,2.4-.88,3.91-.83a18.32,18.32,0,0,1,4.23.69A21.58,21.58,0,0,1,78,3.23c.69.31,1.26.61,1.65.83A20.58,20.58,0,0,1,82.78,6.2a22.61,22.61,0,0,1,3.11,3.07A24.87,24.87,0,0,0,84,7c-.14-.15-.34-.36-.62-.63a20,20,0,0,0-3.61-2.71c-.45-.26-.93-.49-.93-.49s-.5-.25-1-.45a20.25,20.25,0,0,0-2.77-.95c-.11,0-.48-.13-1-.23a20.53,20.53,0,0,0-2.64-.42C70.94,1,70.51,1,70.25,1s-.66,0-1.12,0-.65.05-.83.07-.47.06-.8.13a4.6,4.6,0,0,0-.53.15c-.37.13-.81.3-.9.64s.1.57.35,1A4,4,0,0,0,66.66,3.32Z"/><path class="cls-10" d="M87.51,10.12C90.92,10.51,110,13,123,30.17c1.5,2,15.28,20.76,8.74,43.92-5.59,19.83-22.11,28.83-28.61,32.37-20.26,11-40.16,7.69-46.26,6.41.88.22,2.09.51,3.54.79A73.6,73.6,0,0,0,72.72,115a74.31,74.31,0,0,0,20.89-2.72A69.82,69.82,0,0,0,112,104.19a57.52,57.52,0,0,0,10.23-8.29,58.62,58.62,0,0,0,5.08-6.14,43.16,43.16,0,0,0,4.4-7.32c.21-.45.72-1.54,1.3-3.13a61.08,61.08,0,0,0,3.41-14.42,44.48,44.48,0,0,0-2.89-20.58,52.69,52.69,0,0,0-10.7-17.81A52.23,52.23,0,0,0,103,13.35,52.88,52.88,0,0,0,87.51,10.12Z"/><path class="cls-10" d="M39.77,108C28.53,116,26.55,122,26.88,126c.68,8.25,11.35,12,10.12,19.5-.86,5.21-6.74,7.85-7.26,8.07-7.2,3.1-17.6-.94-24.71-10.81a44,44,0,0,0,6.3,10.25,43.49,43.49,0,0,0,7.7,7.34c1.48.69,7.56,3.31,13.75.64a15.43,15.43,0,0,0,4.36-2.94c5.14-4.86,5.43-11.67,5.48-13.07a22,22,0,0,0-5.89-15.42L35.18,128a10.84,10.84,0,0,1-1.28-.8,14.16,14.16,0,0,1-2.41-2.43l-1.77-2.07,3.75,2.57c.42.3.85.64,1.29,1s.68.6,1,.89l.37.21a11.87,11.87,0,0,1-.23-1.77,15.06,15.06,0,0,1,.65-4.74c1.34-4.21,5.38-7.46,5.87-7.84l2.82-2.64Z"/><path class="cls-5" d="M17,87.33l1.43,2.34a54.77,54.77,0,0,0-6.17,6.92A58.84,58.84,0,0,0,1.09,127a43.9,43.9,0,0,1,.39-9.44A49.8,49.8,0,0,1,5.27,105,63.73,63.73,0,0,1,17,87.33Z"/><path class="cls-10" d="M142.2,153.94a18.13,18.13,0,0,1-3.24,0c-1.26-.11-6.82-.74-13.85-7.13-4.78-4.34-7.26-8.68-12.23-17.35-2.06-3.6-3.52-6.55-4.36-8.31a120.52,120.52,0,0,1-4.75-11.45c.65-.27,1.33-.56,2-.87s1.47-.68,2.26-1.08a132.65,132.65,0,0,0,7.11,17.93c5.75,11.87,10.84,22,21.37,26.54A27.29,27.29,0,0,0,142.2,153.94Z"/><path class="cls-5" d="M148.69,150.37a17.75,17.75,0,0,0,1.64-2.65,19.78,19.78,0,0,0,1.44-4.12c1.16-5.18-.31-12.27-.31-12.27a100.86,100.86,0,0,0-6.17-18.66c-.41-1-2-4.87-4.61-10A159.63,159.63,0,0,0,131,86.09c-.47.78-1,1.57-1.5,2.38-.3.45-.6.88-.9,1.3A151.09,151.09,0,0,1,142.18,110c5.14,9.16,7.08,14.9,8.18,19.63,1.36,5.86,1.4,10,.61,13.95A28.4,28.4,0,0,1,148.69,150.37Z"/></g><g id="Capa_4" data-name="Capa 4"><path class="cls-5" d="M12.74,61.55c.4-3.49,2.93-22.75,17.37-35.35,2.81-2.45,10.69-9.33,22.58-11.26a39.35,39.35,0,0,1,4.21-.46l-3.64-1.76A51.86,51.86,0,0,0,12.74,61.55Z"/></g></g></svg>